<?xml version="1.0" encoding="iso-8859-1"?>
<!-- Generator: Adobe Illustrator 19.1.0, SVG Export Plug-In . SVG Version: 6.00 Build 0)  -->
<svg version="1.1" id="Capa_1" xmlns="http://www.w3.org/2000/svg" xmlns:xlink="http://www.w3.org/1999/xlink" x="0px" y="0px"
	 viewBox="0 0 476.213 476.213" style="enable-background:new 0 0 476.213 476.213;" xml:space="preserve">
<g>
	<polygon points="460.299,108.545 424.591,72.836 476.213,21.213 455,0 403.378,51.623 367.668,15.914 328.73,54.852 
		421.361,147.483 	"/>
	<path d="M37.434,417.512C37.461,417.54,0,455,0,455l21.213,21.213l37.461-37.46c0.027,0.027,81.296-22.034,81.296-22.034
		l-80.476-80.475L37.434,417.512z"/>
	<path d="M74.628,308.952L307.513,76.067l92.63,92.63L167.258,401.582L74.628,308.952z"/>
	<polygon points="400.034,168.582 431.891,200.439 338.243,294.086 359.456,315.299 474.317,200.439 421.247,147.369 	"/>
</g>
</svg>
